<svg id="Layer_1" data-name="Layer 1" xmlns="http://www.w3.org/2000/svg" viewBox="0 0 512 512"><defs><style>.cls-1{stroke:#fff;stroke-width:10px;}.cls-1,.cls-3{stroke-miterlimit:10;}.cls-2{font-size:121.27px;fill:#fff;font-family:Poppins-Black, Poppins;font-weight:800;}.cls-3{fill:none;stroke:#000;stroke-width:15px;}</style></defs><g id="Filter"><path d="M213.33,458.67A10.67,10.67,0,0,1,202.67,448V260.24L24.24,71.32a10.67,10.67,0,0,1,7.76-18H480a10.67,10.67,0,0,1,7.76,18L309.33,260.24V384a10.63,10.63,0,0,1-4.26,8.53l-85.34,64A10.62,10.62,0,0,1,213.33,458.67ZM56.75,74.67l164.34,174A10.66,10.66,0,0,1,224,256V426.67l64-48V256a10.66,10.66,0,0,1,2.91-7.32l164.34-174Z"/></g><circle class="cls-1" cx="315.35" cy="350.95" r="78.35"/><text class="cls-2" transform="translate(271.46 389.6)">X</text><line class="cls-3" x1="129.61" y1="108.95" x2="186.38" y2="168.92"/><line class="cls-3" x1="193.54" y1="175.79" x2="205.7" y2="188.16"/></svg>